<svg width="256" height="256" viewBox="0 0 256 256" fill="none" xmlns="http://www.w3.org/2000/svg">
<circle cx="128" cy="128" r="60" fill="white"/>
<rect x="123" y="10" width="10" height="50" rx="5" fill="white"/>
<rect x="123" y="196" width="10" height="50" rx="5" fill="white"/>
<rect x="196" y="133" width="10" height="50" rx="5" transform="rotate(-90 196 133)" fill="white"/>
<rect x="39" y="46.0711" width="10" height="50" rx="5" transform="rotate(-45 39 46.0711)" fill="white"/>
<rect x="175" y="182.071" width="10" height="50" rx="5" transform="rotate(-45 175 182.071)" fill="white"/>
<rect x="182.071" y="81.4264" width="10" height="50" rx="5" transform="rotate(-135 182.071 81.4264)" fill="white"/>
<rect x="46.0711" y="217.426" width="10" height="50" rx="5" transform="rotate(-135 46.0711 217.426)" fill="white"/>
<rect x="10" y="133" width="10" height="50" rx="5" transform="rotate(-90 10 133)" fill="white"/>
</svg>
